<?xml version="1.0" encoding="UTF-8"?>
<svg xmlns="http://www.w3.org/2000/svg" xmlns:xlink="http://www.w3.org/1999/xlink" width="854" height="480" viewBox="0 0 854 480">
<defs>
<g>
<g id="glyph-0-0">
<path d="M 4.5 -7.28125 C 4.800781 -6.738281 5.300781 -6.019531 6 -5.125 C 6.769531 -4.21875 7.164062 -3.671875 7.1875 -3.484375 C 7.320312 -3.210938 7.390625 -2.945312 7.390625 -2.6875 L 7.390625 -2.484375 C 7.390625 -1.941406 7.125 -1.515625 6.59375 -1.203125 C 6.414062 -1.128906 6.222656 -1.09375 6.015625 -1.09375 C 5.515625 -1.09375 5.113281 -1.453125 4.8125 -2.171875 L 4.59375 -2.171875 L 4.59375 -2.109375 C 4.59375 -1.191406 4.726562 -0.488281 5 0 L 3.953125 0 L 3.953125 -0.03125 C 4.234375 -0.519531 4.375 -1.226562 4.375 -2.15625 L 4.359375 -2.171875 L 4.171875 -2.171875 L 3.9375 -1.75 C 3.664062 -1.3125 3.320312 -1.09375 2.90625 -1.09375 C 2.300781 -1.09375 1.875 -1.429688 1.625 -2.109375 L 1.578125 -2.46875 L 1.578125 -2.703125 C 1.578125 -3.296875 1.878906 -3.921875 2.484375 -4.578125 C 3.515625 -5.835938 4.175781 -6.734375 4.46875 -7.265625 L 4.484375 -7.28125 Z "/>
</g>
<g id="glyph-0-1">
</g>
<g id="glyph-0-2">
<path d="M 2.703125 -7.28125 C 3.359375 -7.28125 3.875 -6.898438 4.25 -6.140625 C 4.382812 -5.835938 4.457031 -5.601562 4.46875 -5.4375 L 4.484375 -5.4375 C 4.597656 -5.96875 4.804688 -6.410156 5.109375 -6.765625 C 5.453125 -7.109375 5.847656 -7.28125 6.296875 -7.28125 C 6.972656 -7.28125 7.515625 -6.914062 7.921875 -6.1875 C 8.023438 -5.914062 8.078125 -5.664062 8.078125 -5.4375 C 8.078125 -4.613281 7.738281 -3.832031 7.0625 -3.09375 L 4.484375 0 L 4.453125 0 L 1.703125 -3.359375 C 1.160156 -4.023438 0.890625 -4.71875 0.890625 -5.4375 C 0.890625 -6.113281 1.210938 -6.65625 1.859375 -7.0625 C 2.128906 -7.207031 2.410156 -7.28125 2.703125 -7.28125 Z "/>
</g>
<g id="glyph-0-3">
<path d="M 4.484375 -7.28125 L 6.9375 -4.09375 C 7.164062 -3.820312 7.28125 -3.664062 7.28125 -3.625 L 4.484375 0 C 4.441406 -0.03125 3.507812 -1.238281 1.6875 -3.625 C 1.6875 -3.664062 1.863281 -3.910156 2.21875 -4.359375 Z "/>
</g>
<g id="glyph-0-4">
<path d="M 4.484375 -7.28125 C 5.179688 -7.28125 5.695312 -6.910156 6.03125 -6.171875 C 6.070312 -6.003906 6.097656 -5.832031 6.109375 -5.65625 C 6.109375 -5.269531 5.910156 -4.816406 5.515625 -4.296875 L 5.21875 -4 L 5.234375 -4 C 5.472656 -4.09375 5.734375 -4.140625 6.015625 -4.140625 L 6.109375 -4.140625 C 6.878906 -4.140625 7.421875 -3.8125 7.734375 -3.15625 C 7.804688 -2.9375 7.84375 -2.734375 7.84375 -2.546875 C 7.84375 -1.867188 7.503906 -1.363281 6.828125 -1.03125 C 6.691406 -0.988281 6.507812 -0.957031 6.28125 -0.9375 C 5.5 -0.9375 4.941406 -1.382812 4.609375 -2.28125 L 4.59375 -2.28125 L 4.59375 -2.234375 C 4.59375 -1.117188 4.726562 -0.382812 5 -0.03125 L 5 0 L 3.984375 0 L 3.953125 -0.03125 C 4.222656 -0.445312 4.359375 -1.195312 4.359375 -2.28125 L 4.359375 -2.296875 L 4.34375 -2.296875 C 4.019531 -1.390625 3.460938 -0.9375 2.671875 -0.9375 C 2.046875 -0.9375 1.566406 -1.265625 1.234375 -1.921875 C 1.148438 -2.140625 1.109375 -2.347656 1.109375 -2.546875 C 1.109375 -3.296875 1.507812 -3.804688 2.3125 -4.078125 C 2.53125 -4.117188 2.722656 -4.140625 2.890625 -4.140625 L 2.9375 -4.140625 C 3.207031 -4.140625 3.472656 -4.09375 3.734375 -4 L 3.75 -4 L 3.75 -4.015625 C 3.46875 -4.242188 3.28125 -4.472656 3.1875 -4.703125 C 3 -5.054688 2.90625 -5.367188 2.90625 -5.640625 L 2.90625 -5.703125 C 2.90625 -6.359375 3.253906 -6.851562 3.953125 -7.1875 C 4.179688 -7.25 4.359375 -7.28125 4.484375 -7.28125 Z "/>
</g>
</g>
</defs>
<g fill="rgb(78.823529%, 21.176471%, 17.254902%)" fill-opacity="1">
<use xlink:href="#glyph-0-0" x="30" y="29.282227"/>
<use xlink:href="#glyph-0-1" x="39" y="29.282227"/>
<use xlink:href="#glyph-0-2" x="42" y="29.282227"/>
<use xlink:href="#glyph-0-1" x="51" y="29.282227"/>
<use xlink:href="#glyph-0-3" x="54" y="29.282227"/>
<use xlink:href="#glyph-0-1" x="63" y="29.282227"/>
<use xlink:href="#glyph-0-4" x="66" y="29.282227"/>
</g>
</svg>
